<?xml version="1.0" standalone="no"?>
<!DOCTYPE svg PUBLIC "-//W3C//DTD SVG 20010904//EN"
 "http://www.w3.org/TR/2001/REC-SVG-20010904/DTD/svg10.dtd">
<svg version="1.0" xmlns="http://www.w3.org/2000/svg"
 width="500.000000pt" height="500.000000pt" viewBox="0 0 500.000000 500.000000"
 preserveAspectRatio="xMidYMid meet">
<metadata>
Created by potrace 1.11, written by Peter Selinger 2001-2013
</metadata>
<g transform="translate(0.000000,500.000000) scale(0.100000,-0.100000)"
fill="#000000" stroke="none">
<path d="M610 3441 c-81 -4 -115 -10 -116 -18 -1 -7 -2 -33 -3 -58 -1 -36 -5
-45 -18 -45 -20 0 -64 -69 -75 -115 -3 -16 -14 -50 -24 -75 -17 -42 -18 -93
-19 -690 0 -482 3 -659 13 -700 22 -98 38 -151 44 -145 3 3 11 -7 17 -24 7
-16 23 -38 37 -50 13 -11 24 -29 25 -38 4 -64 -54 -58 534 -61 341 -2 560 1
614 8 158 21 319 86 456 186 64 46 135 108 135 118 0 3 -18 29 -40 58 -50 66
-96 182 -123 313 -18 86 -21 136 -21 363 l-1 263 -21 -26 c-11 -14 -30 -58
-43 -98 -173 -548 -424 -959 -558 -911 -73 26 -96 139 -70 352 41 335 185 751
344 992 57 86 89 121 156 172 60 45 105 61 162 56 57 -4 46 7 -60 61 -199 100
-269 110 -805 115 -234 2 -477 1 -540 -3z"/>
<path d="M2647 3433 c-4 -3 -7 -58 -7 -121 l0 -114 58 7 c68 8 72 10 72 35 0
17 37 139 55 183 6 15 -1 17 -82 17 -49 0 -93 -3 -96 -7z"/>
<path d="M2920 3408 c0 -18 -7 -62 -15 -97 -9 -35 -13 -66 -10 -69 3 -3 72 2
153 12 81 10 224 20 317 23 182 6 215 0 215 -37 0 -23 -5 -24 -50 -9 -24 9
-69 9 -179 0 -250 -20 -466 -43 -473 -50 -7 -6 -36 -89 -90 -251 -8 -24 -11
-169 -11 -480 1 -356 5 -501 23 -725 11 -154 23 -286 25 -292 3 -10 76 -13
312 -15 169 0 288 -4 263 -8 -25 -4 101 -7 280 -6 209 0 281 2 200 6 -88 4
-29 7 198 8 275 2 322 4 322 17 0 8 -27 69 -60 136 -33 67 -59 124 -57 126 3
2 11 -10 19 -27 14 -28 14 -23 16 87 0 73 5 119 11 121 6 2 11 17 11 33 0 35
40 202 50 209 4 3 13 23 20 45 7 22 19 56 26 75 7 19 16 45 19 58 4 12 11 22
16 22 5 0 8 13 7 28 -1 15 2 33 6 41 20 32 35 135 36 238 0 109 -15 213 -32
213 -4 0 -8 14 -8 31 0 37 -60 169 -77 169 -7 0 -17 9 -23 20 -9 16 -8 18 5
14 16 -7 -21 41 -70 89 -30 29 -110 92 -173 134 -35 24 -79 32 -66 11 4 -7 3
-8 -4 -4 -6 4 -9 12 -6 20 3 7 -7 18 -21 24 -31 14 -48 15 -40 3 3 -5 -12 -1
-32 10 -21 10 -76 31 -123 46 l-85 27 -422 4 -423 3 0 -33z m1206 -130 l19
-21 -27 18 c-29 18 -34 25 -20 25 5 0 17 -10 28 -22z"/>
<path d="M1955 3208 c-27 -10 -92 -55 -120 -83 -130 -130 -325 -580 -390 -900
-58 -287 -56 -475 5 -475 52 0 182 164 271 342 111 221 196 454 299 821 62
222 70 267 46 286 -21 17 -77 22 -111 9z"/>
<path d="M2146 3144 c-3 -26 -6 -59 -6 -74 l0 -28 38 17 c20 10 48 22 61 27
23 10 23 10 -25 57 -26 26 -50 47 -54 47 -4 0 -10 -21 -14 -46z"/>
<path d="M2673 3153 l-33 -4 0 -335 0 -334 33 2 c28 3 32 0 32 -22 0 -20 -7
-27 -32 -35 l-33 -9 0 -492 c0 -384 3 -493 13 -496 24 -9 115 -9 120 -1 3 5 2
27 -3 48 -19 83 -30 318 -40 824 -7 335 -14 529 -21 537 -7 9 -7 19 1 34 6 12
15 63 20 113 5 51 12 111 15 135 7 46 10 45 -72 35z"/>
<path d="M2130 3019 c0 -3 -9 -113 -21 -245 -36 -408 -6 -712 87 -894 31 -61
71 -108 81 -95 5 6 28 37 52 69 58 78 125 222 149 321 29 121 22 120 -84 -3
-70 -83 -90 -130 -102 -241 -8 -81 -26 -107 -56 -82 -22 18 -21 58 9 350 34
336 45 384 90 367 19 -7 19 -25 1 -62 -16 -33 -36 -180 -36 -267 l0 -58 33 38
c38 45 76 82 136 133 l43 37 -1 69 c-2 180 -57 358 -158 515 l-36 55 -94 0
c-51 -1 -93 -4 -93 -7z"/>
</g>
</svg>
